# xmcd
#
# Track frame offsets:
#	150
#	21375
#	35725
#	49847
#	61515
#	77695
#	89700
#	109417
#	122735
#	141422
#
# Disc length: 2180
#
# Revision: 3
# Processed by: cddbd v1.5.1PL0 Copyright (c) Steve Scherf et al.
# Submitted via: CDex 1.50
# Normalized: r2:DSETVAR1,TDELIM( - )
#
DISCID=8e08820a
DTITLE=Various Artist - The Best Of Country Rock
DYEAR=1900
DGENRE=Rock
TTITLE0=Lynyrd Skynyrd - Sweet Home Alabama
TTITLE1=Joe Ely - All My Love
TTITLE2=Mcbride and The Ride - Love On The Loose, Heart On The Run
TTITLE3=Steve Earle - Guitar Town
TTITLE4=Bellamy Brothers - Crazy From The Heart
TTITLE5=Marty Stuart - Hillbilly Rock
TTITLE6=Nitty Gritty Dirt Band With John Hiatt - One Step Over The Line
TTITLE7=Poco - Crazy Love
TTITLE8=Lynard Skynard - Free Bird
TTITLE9=Marshall Tucker Band - Heard It In A Love Song
EXTD=
EXTT0=
EXTT1=
EXTT2=
EXTT3=
EXTT4=
EXTT5=
EXTT6=
EXTT7=
EXTT8=
EXTT9=
PLAYORDER=
